<svg width="151" height="41" viewBox="0 0 151 41" fill="none" xmlns="http://www.w3.org/2000/svg">
<path d="M11.916 32C11.388 32 10.944 31.82 10.584 31.46C10.224 31.1 10.044 30.656 10.044 30.128V3.884H13.788V30.128C13.788 30.656 13.608 31.1 13.248 31.46C12.888 31.82 12.444 32 11.916 32ZM2.268 7.34C1.764 7.34 1.344 7.184 1.008 6.872C0.696 6.536 0.54 6.116 0.54 5.612C0.54 5.108 0.696 4.7 1.008 4.388C1.344 4.052 1.764 3.884 2.268 3.884H21.528C22.032 3.884 22.44 4.052 22.752 4.388C23.088 4.7 23.256 5.108 23.256 5.612C23.256 6.116 23.088 6.536 22.752 6.872C22.44 7.184 22.032 7.34 21.528 7.34H2.268ZM30.5547 32.144C28.6107 32.144 26.8947 31.724 25.4067 30.884C23.9187 30.02 22.7427 28.844 21.8787 27.356C21.0387 25.844 20.6187 24.116 20.6187 22.172C20.6187 20.204 21.0387 18.476 21.8787 16.988C22.7427 15.476 23.9187 14.3 25.4067 13.46C26.8947 12.596 28.6107 12.164 30.5547 12.164C32.4747 12.164 34.1787 12.596 35.6667 13.46C37.1547 14.3 38.3187 15.476 39.1587 16.988C40.0227 18.476 40.4547 20.204 40.4547 22.172C40.4547 24.116 40.0347 25.844 39.1947 27.356C38.3547 28.844 37.1907 30.02 35.7027 30.884C34.2147 31.724 32.4987 32.144 30.5547 32.144ZM30.5547 28.904C31.8027 28.904 32.9067 28.616 33.8667 28.04C34.8267 27.464 35.5707 26.672 36.0987 25.664C36.6507 24.656 36.9267 23.492 36.9267 22.172C36.9267 20.852 36.6507 19.688 36.0987 18.68C35.5707 17.648 34.8267 16.844 33.8667 16.268C32.9067 15.692 31.8027 15.404 30.5547 15.404C29.3067 15.404 28.2027 15.692 27.2427 16.268C26.2827 16.844 25.5267 17.648 24.9747 18.68C24.4227 19.688 24.1467 20.852 24.1467 22.172C24.1467 23.492 24.4227 24.656 24.9747 25.664C25.5267 26.672 26.2827 27.464 27.2427 28.04C28.2027 28.616 29.3067 28.904 30.5547 28.904ZM54.1997 32.18C52.5437 32.18 51.0557 31.832 49.7357 31.136C48.4397 30.416 47.4077 29.372 46.6397 28.004C45.8957 26.636 45.5237 24.956 45.5237 22.964V14.108C45.5237 13.58 45.6917 13.148 46.0277 12.812C46.3877 12.452 46.8317 12.272 47.3597 12.272C47.8877 12.272 48.3197 12.452 48.6557 12.812C49.0157 13.148 49.1957 13.58 49.1957 14.108V22.964C49.1957 24.308 49.4477 25.424 49.9517 26.312C50.4557 27.176 51.1397 27.824 52.0037 28.256C52.8677 28.664 53.8397 28.868 54.9197 28.868C55.9517 28.868 56.8637 28.664 57.6557 28.256C58.4717 27.848 59.1197 27.296 59.5997 26.6C60.0797 25.904 60.3197 25.124 60.3197 24.26H62.5877C62.5877 25.748 62.2157 27.092 61.4717 28.292C60.7517 29.492 59.7557 30.44 58.4837 31.136C57.2357 31.832 55.8077 32.18 54.1997 32.18ZM62.1557 32C61.6277 32 61.1837 31.832 60.8237 31.496C60.4877 31.136 60.3197 30.692 60.3197 30.164V14.108C60.3197 13.556 60.4877 13.112 60.8237 12.776C61.1837 12.44 61.6277 12.272 62.1557 12.272C62.7077 12.272 63.1517 12.44 63.4877 12.776C63.8237 13.112 63.9917 13.556 63.9917 14.108V30.164C63.9917 30.692 63.8237 31.136 63.4877 31.496C63.1517 31.832 62.7077 32 62.1557 32ZM72.2228 19.688C72.2228 18.248 72.5708 16.964 73.2668 15.836C73.9868 14.684 74.9468 13.772 76.1468 13.1C77.3468 12.428 78.6668 12.092 80.1068 12.092C81.5468 12.092 82.6148 12.332 83.3108 12.812C84.0308 13.268 84.3068 13.82 84.1388 14.468C84.0668 14.804 83.9228 15.068 83.7068 15.26C83.5148 15.428 83.2868 15.536 83.0228 15.584C82.7588 15.632 82.4708 15.62 82.1588 15.548C80.6228 15.236 79.2428 15.212 78.0188 15.476C76.7948 15.74 75.8228 16.232 75.1028 16.952C74.4068 17.672 74.0588 18.584 74.0588 19.688H72.2228ZM72.2588 32C71.6828 32 71.2388 31.856 70.9268 31.568C70.6148 31.256 70.4588 30.8 70.4588 30.2V14.108C70.4588 13.532 70.6148 13.088 70.9268 12.776C71.2388 12.464 71.6828 12.308 72.2588 12.308C72.8588 12.308 73.3028 12.464 73.5908 12.776C73.9028 13.064 74.0588 13.508 74.0588 14.108V30.2C74.0588 30.776 73.9028 31.22 73.5908 31.532C73.3028 31.844 72.8588 32 72.2588 32Z" fill="white"/>
<circle cx="93.0672" cy="7.8813" r="2.76698" fill="white"/>
<path fill-rule="evenodd" clip-rule="evenodd" d="M91.679 16.5931C91.0529 17.4511 90.4822 18.5055 89.7659 20.0985C89.368 20.9834 88.328 21.3782 87.4431 20.9803C86.5582 20.5824 86.1634 19.5424 86.5613 18.6575C87.3172 16.9767 88.0044 15.668 88.8406 14.522C89.6884 13.3601 90.6427 12.4286 91.8692 11.4441C92.6258 10.8368 93.7316 10.9578 94.339 11.7144C94.9463 12.471 94.8253 13.5768 94.0687 14.1842C93.0056 15.0375 92.2934 15.751 91.679 16.5931Z" fill="white"/>
<path fill-rule="evenodd" clip-rule="evenodd" d="M92.108 11.3421C92.9376 10.839 94.018 11.1037 94.5211 11.9333C95.2511 13.137 95.8589 13.938 96.551 14.623C97.2504 15.3152 98.0926 15.9456 99.3588 16.757C100.176 17.2806 100.413 18.3672 99.8899 19.1841C99.3664 20.001 98.2798 20.2388 97.4629 19.7153C96.1089 18.8475 95.0323 18.0634 94.0793 17.1203C93.1191 16.1698 92.341 15.1144 91.5168 13.7552C91.0137 12.9256 91.2784 11.8452 92.108 11.3421Z" fill="white"/>
<path fill-rule="evenodd" clip-rule="evenodd" d="M91.2688 22.8812C92.0566 20.4601 92.0905 17.6811 91.3782 13.597C91.2115 12.6412 91.8512 11.7312 92.8071 11.5645C93.7629 11.3978 94.6729 12.0375 94.8396 12.9933C95.5957 17.3285 95.6529 20.7633 94.6101 23.9683C93.5704 27.1636 91.5062 29.9156 88.4628 33.0206C87.7836 33.7135 86.6713 33.7246 85.9784 33.0455C85.2855 32.3663 85.2743 31.254 85.9535 30.5611C88.8576 27.5982 90.4779 25.3119 91.2688 22.8812Z" fill="white"/>
<path fill-rule="evenodd" clip-rule="evenodd" d="M94.4989 26.1688L97.8323 32.6562C98.2758 33.5192 99.3348 33.8594 100.198 33.4159C101.061 32.9725 101.401 31.9134 100.958 31.0504L96.0339 21.468C95.9855 21.3738 95.9298 21.2859 95.8678 21.2045C95.7475 22.3177 95.5247 23.3835 95.1858 24.4251C94.9923 25.02 94.7632 25.5995 94.4989 26.1688Z" fill="white"/>
<path d="M121.024 32.036C120.496 32.036 120.052 31.868 119.692 31.532C119.356 31.172 119.188 30.728 119.188 30.2V21.344C119.188 19.976 118.936 18.86 118.432 17.996C117.928 17.132 117.244 16.496 116.38 16.088C115.54 15.656 114.568 15.44 113.464 15.44C112.456 15.44 111.544 15.644 110.728 16.052C109.912 16.46 109.264 17.012 108.784 17.708C108.304 18.38 108.064 19.16 108.064 20.048H105.796C105.796 18.536 106.156 17.192 106.876 16.016C107.62 14.816 108.628 13.868 109.9 13.172C111.172 12.476 112.6 12.128 114.184 12.128C115.84 12.128 117.316 12.488 118.612 13.208C119.932 13.904 120.964 14.936 121.708 16.304C122.476 17.672 122.86 19.352 122.86 21.344V30.2C122.86 30.728 122.68 31.172 122.32 31.532C121.984 31.868 121.552 32.036 121.024 32.036ZM106.228 32.036C105.7 32.036 105.256 31.868 104.896 31.532C104.56 31.172 104.392 30.728 104.392 30.2V14.144C104.392 13.592 104.56 13.148 104.896 12.812C105.256 12.476 105.7 12.308 106.228 12.308C106.78 12.308 107.224 12.476 107.56 12.812C107.896 13.148 108.064 13.592 108.064 14.144V30.2C108.064 30.728 107.896 31.172 107.56 31.532C107.224 31.868 106.78 32.036 106.228 32.036ZM137.139 32.144C135.339 32.144 133.743 31.724 132.351 30.884C130.983 30.02 129.903 28.844 129.111 27.356C128.319 25.844 127.923 24.116 127.923 22.172C127.923 20.204 128.343 18.476 129.183 16.988C130.047 15.476 131.223 14.3 132.711 13.46C134.199 12.596 135.915 12.164 137.859 12.164C139.779 12.164 141.483 12.596 142.971 13.46C144.459 14.3 145.623 15.476 146.463 16.988C147.327 18.476 147.759 20.204 147.759 22.172H145.635C145.635 24.116 145.263 25.844 144.519 27.356C143.799 28.844 142.803 30.02 141.531 30.884C140.259 31.724 138.795 32.144 137.139 32.144ZM137.787 40.172C136.083 40.172 134.487 39.836 132.999 39.164C131.511 38.492 130.251 37.508 129.219 36.212C128.907 35.804 128.787 35.384 128.859 34.952C128.955 34.52 129.195 34.172 129.579 33.908C130.011 33.62 130.455 33.524 130.911 33.62C131.391 33.716 131.775 33.956 132.063 34.34C132.711 35.156 133.527 35.792 134.511 36.248C135.495 36.704 136.611 36.932 137.859 36.932C139.011 36.932 140.067 36.656 141.027 36.104C142.011 35.552 142.791 34.736 143.367 33.656C143.943 32.576 144.231 31.256 144.231 29.696V24.584L145.419 21.416L147.759 22.172V29.948C147.759 31.844 147.339 33.56 146.499 35.096C145.659 36.656 144.483 37.892 142.971 38.804C141.483 39.716 139.755 40.172 137.787 40.172ZM137.859 28.904C139.107 28.904 140.211 28.616 141.171 28.04C142.131 27.464 142.875 26.672 143.403 25.664C143.955 24.656 144.231 23.492 144.231 22.172C144.231 20.852 143.955 19.688 143.403 18.68C142.875 17.648 142.131 16.844 141.171 16.268C140.211 15.692 139.107 15.404 137.859 15.404C136.611 15.404 135.507 15.692 134.547 16.268C133.587 16.844 132.831 17.648 132.279 18.68C131.727 19.688 131.451 20.852 131.451 22.172C131.451 23.492 131.727 24.656 132.279 25.664C132.831 26.672 133.587 27.464 134.547 28.04C135.507 28.616 136.611 28.904 137.859 28.904Z" fill="white"/>
</svg>
